<?xml version="1.0" encoding="iso-8859-1"?>
<!-- Generator: Adobe Illustrator 19.0.0, SVG Export Plug-In . SVG Version: 6.00 Build 0)  -->
<svg version="1.1" id="Layer_1" xmlns="http://www.w3.org/2000/svg" xmlns:xlink="http://www.w3.org/1999/xlink" x="0px" y="0px"
	 viewBox="0 0 512.001 512.001" style="enable-background:new 0 0 512.001 512.001;" xml:space="preserve">
<g>
	<g>
		<g>
			<path d="M256.005,224.187c-17.35,0-31.466,14.115-31.466,31.466c0,17.349,14.115,31.465,31.466,31.465
				c17.35,0,31.465-14.115,31.466-31.465C287.471,238.302,273.356,224.187,256.005,224.187z M256.005,273.063
				c-9.6,0-17.411-7.81-17.411-17.41c0-9.6,7.811-17.411,17.411-17.411c9.6,0,17.411,7.811,17.411,17.411
				C273.416,265.253,265.606,273.063,256.005,273.063z"/>
			<path d="M367.406,255.653c-0.001-24.604-7.86-47.928-22.73-67.452c-6.109-8.018-13.25-15.159-21.216-21.218
				c-19.504-14.879-42.83-22.744-67.455-22.744c-24.611,0-47.935,7.865-67.451,22.741c-7.992,6.089-15.132,13.229-21.219,21.219
				c-14.879,19.518-22.744,42.843-22.744,67.453c0,24.616,7.865,47.938,22.739,67.434c6.09,8.009,13.234,15.152,21.222,21.223
				c19.517,14.879,42.842,22.743,67.453,22.743c24.626,0,47.952-7.865,67.446-22.738c8.001-6.084,15.143-13.226,21.228-21.228
				C359.547,303.577,367.406,280.259,367.406,255.653z M256.004,158.294c18.174,0,35.525,4.918,50.75,14.272
				c-15.234,9.351-32.588,14.269-50.75,14.269c-18.171,0-35.525-4.917-50.75-14.265
				C220.485,163.214,237.837,158.294,256.004,158.294z M172.92,306.393c-9.354-15.221-14.273-32.571-14.273-50.74
				c0-18.165,4.919-35.517,14.275-50.747c9.35,15.234,14.266,32.587,14.266,50.747C187.187,273.818,182.271,291.169,172.92,306.393z
				 M256.005,352.998c-18.165,0-35.517-4.919-50.75-14.276c15.225-9.349,32.578-14.265,50.75-14.265
				c18.162,0,35.516,4.918,50.75,14.269C291.535,348.08,274.181,352.998,256.005,352.998z M318.952,329.89
				c-18.565-12.759-40.206-19.488-62.948-19.488c-22.754,0-44.396,6.729-62.95,19.488c-4.068-3.447-7.846-7.225-11.3-11.301
				c12.758-18.553,19.487-40.191,19.487-62.936c0-22.741-6.729-44.382-19.485-62.945c3.453-4.069,7.233-7.848,11.302-11.302
				c18.553,12.757,40.194,19.484,62.945,19.484c22.741,0,44.383-6.729,62.948-19.488c4.062,3.445,7.84,7.225,11.3,11.303
				c-12.766,18.559-19.498,40.201-19.498,62.948c0,22.752,6.732,44.39,19.498,62.937C326.803,322.66,323.024,326.438,318.952,329.89
				z M324.809,255.653c0-18.165,4.919-35.518,14.275-50.747c9.35,15.234,14.268,32.587,14.268,50.747
				c-0.001,18.165-4.918,35.515-14.268,50.74C329.728,291.173,324.809,273.823,324.809,255.653z"/>
			<path d="M424.264,476.236c0.006-0.114,0.018-0.225,0.018-0.34V35.424h-0.002c0-0.008,0.001-0.015,0.001-0.022V7.027
				c0-3.88-3.147-7.027-7.027-7.027c-3.88,0-7.027,3.147-7.027,7.027v21.353h-21.779V7.027c0-3.88-3.147-7.027-7.027-7.027
				s-7.027,3.147-7.027,7.027v21.353h-21.78V7.027c0-3.88-3.147-7.027-7.027-7.027c-3.88,0-7.027,3.147-7.027,7.027v21.353h-21.779
				V7.027c0-3.88-3.147-7.027-7.027-7.027s-7.027,3.147-7.027,7.027v21.353h-21.78V7.027c0-3.88-3.147-7.027-7.027-7.027
				c-3.88,0-7.027,3.147-7.027,7.027v21.353h-21.78V7.027c0-3.88-3.147-7.027-7.027-7.027c-3.88,0-7.027,3.147-7.027,7.027v21.353
				h-21.779V7.027c0-3.88-3.147-7.027-7.027-7.027c-3.88,0-7.027,3.147-7.027,7.027v21.353h-21.78V7.027
				c0-3.88-3.147-7.027-7.027-7.027c-3.88,0-7.027,3.147-7.027,7.027v21.353H137.61V7.027c0-3.88-3.147-7.027-7.027-7.027
				c-3.88,0-7.027,3.147-7.027,7.027v21.353h-21.779V7.027C101.777,3.147,98.63,0,94.75,0c-3.88,0-7.027,3.147-7.027,7.027v28.301
				c0,0.027-0.003,0.053-0.003,0.08v440.488c0,0.131,0.013,0.26,0.02,0.39c-0.005,0.104-0.015,0.206-0.015,0.312v28.376
				c0,3.88,3.147,7.027,7.027,7.027c3.88,0,7.027-3.147,7.027-7.027v-22.049h21.78v22.049c0,3.88,3.147,7.027,7.027,7.027
				c3.88,0,7.027-3.147,7.027-7.027v-22.049h21.779v22.049c0,3.88,3.147,7.027,7.027,7.027c3.88,0,7.027-3.147,7.027-7.027v-22.049
				h21.78v22.049c0,3.88,3.147,7.027,7.027,7.027s7.027-3.147,7.027-7.027v-22.049h21.779v22.049c0,3.88,3.147,7.027,7.027,7.027
				c3.88,0,7.027-3.147,7.027-7.027v-22.049h21.78v22.049c0,3.88,3.147,7.027,7.027,7.027s7.027-3.147,7.027-7.027v-22.049h21.78
				v22.049c0,3.88,3.147,7.027,7.027,7.027c3.88,0,7.027-3.147,7.027-7.027v-22.049h21.779v22.049c0,3.88,3.147,7.027,7.027,7.027
				s7.027-3.147,7.027-7.027v-22.049h21.78v22.049c0,3.88,3.147,7.027,7.027,7.027c3.88,0,7.027-3.147,7.027-7.027v-22.049h21.779
				v22.049c0,3.88,3.147,7.027,7.027,7.027s7.027-3.147,7.027-7.027v-28.376C424.282,476.476,424.271,476.357,424.264,476.236z
				 M101.772,42.435h90.051c-3.45,48.082-41.962,86.588-90.051,90.037V42.435z M101.772,468.869v-90.037
				c48.089,3.449,86.599,41.955,90.051,90.037H101.772z M306.065,468.869H205.93c-3.494-55.84-48.311-100.651-104.158-104.145
				V146.58c55.847-3.493,100.664-48.305,104.158-104.145h100.135c3.494,55.84,48.311,100.651,104.158,104.145v218.144
				C354.376,368.216,309.559,413.029,306.065,468.869z M410.224,468.869h-90.051c3.45-48.082,41.962-86.588,90.051-90.037V468.869z
				 M410.224,132.472c-48.089-3.449-86.599-41.955-90.051-90.037h90.051V132.472z"/>
			<path d="M139.724,69.319c-0.386-0.258-0.796-0.469-1.218-0.644c-0.422-0.176-0.867-0.316-1.312-0.41
				c-0.902-0.176-1.839-0.176-2.752,0c-0.445,0.094-0.89,0.234-1.312,0.41c-0.422,0.176-0.832,0.386-1.206,0.644
				c-0.387,0.258-0.75,0.55-1.078,0.867c-0.316,0.328-0.609,0.691-0.867,1.078c-0.258,0.375-0.469,0.785-0.644,1.206
				c-0.176,0.422-0.316,0.867-0.41,1.312c-0.082,0.457-0.129,0.925-0.129,1.382c0,0.457,0.047,0.914,0.129,1.37
				c0.094,0.445,0.234,0.89,0.41,1.312c0.176,0.422,0.386,0.832,0.644,1.218c0.258,0.386,0.55,0.738,0.867,1.066
				c0.328,0.316,0.691,0.621,1.078,0.867c0.375,0.258,0.785,0.48,1.206,0.656s0.867,0.305,1.312,0.398
				c0.457,0.094,0.925,0.141,1.382,0.141c0.458,0,0.915-0.047,1.37-0.141c0.445-0.094,0.89-0.223,1.312-0.398
				s0.832-0.398,1.218-0.656c0.386-0.246,0.738-0.55,1.066-0.867c1.312-1.312,2.061-3.127,2.061-4.966
				c0-1.85-0.75-3.666-2.061-4.978C140.462,69.87,140.111,69.577,139.724,69.319z"/>
			<path d="M369.692,77.846c0.176,0.422,0.398,0.832,0.644,1.218c0.258,0.375,0.55,0.738,0.878,1.066
				c0.316,0.316,0.679,0.621,1.066,0.867c0.375,0.258,0.785,0.48,1.218,0.656c0.422,0.176,0.867,0.305,1.312,0.398
				c0.457,0.094,0.914,0.141,1.37,0.141c1.851,0,3.666-0.75,4.966-2.061c0.328-0.328,0.621-0.691,0.878-1.066
				c0.258-0.386,0.468-0.796,0.644-1.218c0.176-0.422,0.316-0.867,0.398-1.312c0.094-0.457,0.141-0.914,0.141-1.37
				c0-0.457-0.047-0.925-0.141-1.382c-0.082-0.445-0.223-0.89-0.398-1.312c-0.176-0.422-0.387-0.832-0.644-1.218
				c-0.258-0.375-0.55-0.738-0.878-1.066c-1.628-1.628-4.052-2.378-6.336-1.921c-0.445,0.094-0.89,0.234-1.312,0.41
				c-0.433,0.176-0.843,0.386-1.218,0.644c-0.386,0.258-0.75,0.55-1.066,0.867c-0.328,0.328-0.621,0.691-0.878,1.066
				c-0.246,0.386-0.468,0.796-0.644,1.218c-0.176,0.422-0.305,0.867-0.398,1.312c-0.094,0.457-0.141,0.925-0.141,1.382
				c0,0.457,0.047,0.914,0.141,1.37C369.388,76.979,369.517,77.424,369.692,77.846z"/>
			<path d="M139.724,430.298c-0.386-0.258-0.796-0.468-1.218-0.656c-0.422-0.176-0.867-0.305-1.312-0.398
				c-0.902-0.176-1.839-0.176-2.752,0c-0.445,0.094-0.89,0.223-1.312,0.398c-0.422,0.187-0.832,0.398-1.206,0.656
				c-0.387,0.258-0.75,0.55-1.078,0.867c-0.316,0.328-0.609,0.691-0.867,1.066c-0.258,0.387-0.469,0.796-0.644,1.218
				c-0.176,0.422-0.316,0.867-0.41,1.312c-0.082,0.457-0.129,0.914-0.129,1.382c0,0.457,0.047,0.914,0.129,1.37
				c0.094,0.445,0.234,0.89,0.41,1.312c0.176,0.422,0.386,0.832,0.644,1.218c0.258,0.386,0.55,0.738,0.867,1.066
				c0.328,0.316,0.691,0.621,1.078,0.867c0.375,0.258,0.785,0.48,1.206,0.656c0.422,0.176,0.867,0.305,1.312,0.398
				c0.457,0.094,0.925,0.141,1.382,0.141c0.458,0,0.915-0.047,1.37-0.141c0.445-0.094,0.89-0.223,1.312-0.398
				s0.832-0.398,1.218-0.656c0.386-0.246,0.738-0.55,1.066-0.867c1.312-1.312,2.061-3.127,2.061-4.966
				c0-1.851-0.75-3.666-2.061-4.978C140.462,430.848,140.111,430.555,139.724,430.298z"/>
			<path d="M369.692,438.824c0.176,0.422,0.398,0.832,0.644,1.218c0.258,0.375,0.55,0.738,0.878,1.066
				c0.316,0.316,0.679,0.609,1.066,0.867c0.375,0.258,0.785,0.48,1.218,0.656c0.422,0.176,0.867,0.305,1.312,0.398
				c0.457,0.094,0.914,0.141,1.37,0.141c1.851,0,3.666-0.761,4.966-2.061c0.328-0.328,0.621-0.691,0.878-1.066
				c0.258-0.387,0.468-0.796,0.644-1.218c0.176-0.422,0.316-0.867,0.398-1.312c0.094-0.457,0.141-0.914,0.141-1.37
				c0-0.457-0.047-0.925-0.141-1.382c-0.082-0.445-0.223-0.89-0.398-1.312c-0.176-0.422-0.387-0.832-0.644-1.218
				c-0.258-0.375-0.55-0.738-0.878-1.066c-1.628-1.628-4.052-2.378-6.336-1.921c-0.445,0.094-0.89,0.223-1.312,0.398
				c-0.433,0.176-0.843,0.398-1.218,0.656c-0.386,0.246-0.75,0.55-1.066,0.867c-0.328,0.328-0.621,0.691-0.878,1.066
				c-0.246,0.387-0.468,0.796-0.644,1.218c-0.176,0.422-0.305,0.867-0.398,1.312c-0.094,0.457-0.141,0.925-0.141,1.382
				s0.047,0.914,0.141,1.37C369.388,437.957,369.517,438.402,369.692,438.824z"/>
			<path d="M139.724,172.315c-0.386-0.258-0.796-0.48-1.218-0.656s-0.867-0.305-1.312-0.398c-0.902-0.176-1.839-0.176-2.752,0
				c-0.445,0.094-0.89,0.223-1.312,0.398s-0.832,0.398-1.206,0.656c-0.387,0.246-0.75,0.55-1.078,0.867
				c-0.316,0.328-0.609,0.679-0.867,1.066c-0.258,0.386-0.469,0.796-0.644,1.218c-0.176,0.422-0.316,0.867-0.41,1.312
				c-0.082,0.457-0.129,0.914-0.129,1.37c0,0.457,0.047,0.925,0.129,1.382c0.094,0.445,0.234,0.89,0.41,1.312
				c0.176,0.422,0.386,0.832,0.644,1.206c0.258,0.386,0.55,0.75,0.867,1.078c0.328,0.316,0.691,0.609,1.078,0.867
				c0.375,0.258,0.785,0.469,1.206,0.644s0.867,0.316,1.312,0.41c0.457,0.082,0.925,0.129,1.382,0.129
				c0.458,0,0.915-0.047,1.37-0.129c0.445-0.094,0.89-0.234,1.312-0.41c0.422-0.176,0.832-0.386,1.218-0.644
				c0.386-0.258,0.738-0.55,1.066-0.867c1.312-1.312,2.061-3.127,2.061-4.978c0-1.839-0.75-3.654-2.061-4.966
				C140.462,172.866,140.111,172.561,139.724,172.315z"/>
			<path d="M372.281,183.992c0.375,0.258,0.785,0.48,1.218,0.656c0.422,0.176,0.867,0.305,1.312,0.398s0.914,0.129,1.37,0.129
				c1.851,0,3.666-0.75,4.966-2.05c1.312-1.312,2.061-3.115,2.061-4.966c0-0.468-0.047-0.925-0.141-1.382
				c-0.082-0.445-0.223-0.89-0.398-1.312c-0.176-0.422-0.386-0.832-0.644-1.218c-0.258-0.375-0.55-0.738-0.878-1.066
				c-1.628-1.628-4.052-2.378-6.336-1.921c-0.445,0.094-0.89,0.223-1.312,0.398c-0.433,0.176-0.843,0.398-1.218,0.656
				c-0.387,0.246-0.75,0.55-1.066,0.867c-0.328,0.328-0.621,0.691-0.878,1.066c-0.246,0.386-0.469,0.796-0.644,1.218
				c-0.176,0.422-0.305,0.867-0.398,1.312c-0.094,0.457-0.141,0.914-0.141,1.382c0,1.839,0.75,3.654,2.061,4.966
				C371.531,183.442,371.894,183.746,372.281,183.992z"/>
			<path d="M139.724,327.301c-0.386-0.258-0.796-0.468-1.218-0.644c-0.422-0.176-0.867-0.316-1.312-0.41
				c-0.902-0.176-1.839-0.176-2.752,0c-0.445,0.094-0.89,0.234-1.312,0.41c-0.422,0.176-0.832,0.387-1.206,0.644
				c-0.387,0.258-0.75,0.55-1.078,0.878c-0.316,0.316-0.609,0.679-0.867,1.066c-0.258,0.375-0.469,0.785-0.644,1.206
				c-0.176,0.422-0.316,0.867-0.41,1.323c-0.082,0.445-0.129,0.914-0.129,1.37s0.047,0.914,0.129,1.37
				c0.094,0.445,0.234,0.89,0.41,1.312c0.176,0.422,0.386,0.832,0.644,1.218c0.258,0.387,0.55,0.738,0.867,1.066
				c0.328,0.328,0.691,0.621,1.078,0.878c0.375,0.246,0.785,0.469,1.206,0.644s0.867,0.305,1.312,0.398
				c0.457,0.094,0.925,0.141,1.382,0.141c0.458,0,0.915-0.047,1.37-0.141c0.445-0.094,0.89-0.223,1.312-0.398
				s0.832-0.398,1.218-0.644c0.386-0.258,0.738-0.55,1.066-0.878c1.312-1.312,2.061-3.115,2.061-4.966
				c0-1.851-0.75-3.666-2.061-4.966C140.462,327.852,140.111,327.559,139.724,327.301z"/>
			<path d="M374.81,326.247c-0.445,0.094-0.89,0.234-1.312,0.41c-0.433,0.176-0.843,0.386-1.218,0.644
				c-0.387,0.258-0.75,0.55-1.066,0.867c-1.312,1.312-2.061,3.127-2.061,4.978c0,0.457,0.047,0.914,0.141,1.37
				c0.094,0.445,0.223,0.89,0.398,1.312c0.176,0.422,0.398,0.832,0.644,1.218c0.258,0.387,0.55,0.738,0.878,1.066
				c0.316,0.328,0.679,0.621,1.066,0.878c0.375,0.246,0.785,0.469,1.218,0.644c0.422,0.176,0.867,0.305,1.312,0.398
				c0.457,0.094,0.914,0.141,1.37,0.141c1.851,0,3.666-0.75,4.966-2.061c0.328-0.328,0.621-0.679,0.878-1.066
				c0.258-0.387,0.468-0.796,0.644-1.218c0.176-0.422,0.316-0.867,0.398-1.312c0.094-0.457,0.141-0.914,0.141-1.37
				c0-1.851-0.75-3.666-2.061-4.978C379.519,326.54,377.094,325.791,374.81,326.247z"/>
		</g>
	</g>
</g>
<g>
</g>
<g>
</g>
<g>
</g>
<g>
</g>
<g>
</g>
<g>
</g>
<g>
</g>
<g>
</g>
<g>
</g>
<g>
</g>
<g>
</g>
<g>
</g>
<g>
</g>
<g>
</g>
<g>
</g>
</svg>
